# xmcd
#
# Track frame offsets:
#	150
#	18682
#	34918
#	48807
#	62492
#	77159
#	101971
#	117619
#	134582
#	152930
#	173300
#	194790
#	209891
#	230006
#	250046
#	267451
#	282390
#	301771
#
# Disc length: 4315 seconds
#
# Revision: 1
# Processed by: cddbd v1.5.2PL0 Copyright (c) Steve Scherf et al.
# Submitted via: audiograbber 1.83.01
#
DISCID=1210d912
DTITLE=Renan and Ray - Ao Vivo
DYEAR=1900
DGENRE=
TTITLE0=Além do Sol, Além do Mar
TTITLE1=Grudada em Mim
TTITLE2=Vou Beber de Novo
TTITLE3=A Cor da Esperança
TTITLE4=Você
TTITLE5=(pout-pourri) Coração Xonado, Gamado Nela, Amor Perigoso
TTITLE6=Sempre Tu
TTITLE7=Marcas (Part. Luca e Ramalho)
TTITLE8=Tá Difícil de Voltar
TTITLE9=Liguei Pra Te Ouvir
TTITLE10=Vida Nova, Novo Amor
TTITLE11=Meu Apêlo
TTITLE12=Será Que Pensa Em Mim
TTITLE13=Desejos
TTITLE14=Minhas Palavras (Part. Larissa)
TTITLE15=Coração Ferido
TTITLE16=Nosso Amor Onde Vai Dar
TTITLE17=É Sempre Assim
EXTD=
EXTT0=
EXTT1=
EXTT2=
EXTT3=
EXTT4=
EXTT5=
EXTT6=
EXTT7=
EXTT8=
EXTT9=
EXTT10=
EXTT11=
EXTT12=
EXTT13=
EXTT14=
EXTT15=
EXTT16=
EXTT17=
PLAYORDER=
